<svg width="14" height="14" viewBox="0 0 14 14" fill="none" xmlns="http://www.w3.org/2000/svg">
<path fill-rule="evenodd" clip-rule="evenodd" d="M9.41726 1.61091C10.4959 2.68958 11.0329 4.10483 11.0281 5.51859C11.0234 6.91996 10.4865 8.31987 9.41726 9.38909C7.26938 11.537 3.78697 11.537 1.63909 9.38909C-0.508796 7.2412 -0.508796 3.7588 1.63909 1.61091C3.78697 -0.536971 7.26938 -0.536971 9.41726 1.61091ZM8.71015 8.68198C6.9528 10.4393 4.10355 10.4393 2.34619 8.68198C0.588835 6.92462 0.588835 4.07538 2.34619 2.31802C4.10355 0.560661 6.9528 0.56066 8.71015 2.31802C9.59288 3.20075 10.032 4.35693 10.0281 5.51523C10.0243 6.66332 9.58518 7.80696 8.71015 8.68198Z" fill="#1E1D85"/>
<path d="M8.3566 9.03553L9.06371 8.32843L13.6599 12.9246C13.8552 13.1199 13.8552 13.4365 13.6599 13.6317C13.4646 13.827 13.1481 13.827 12.9528 13.6317L8.3566 9.03553Z" fill="#1E1D85"/>
</svg>
