<svg width="16" height="16" viewBox="0 0 16 16" fill="none" xmlns="http://www.w3.org/2000/svg">
<path fill-rule="evenodd" clip-rule="evenodd" d="M8 8C10.2091 8 12 6.20914 12 4C12 1.79086 10.2091 0 8 0C5.79089 0 4 1.79086 4 4C4 6.20914 5.79089 8 8 8ZM8 7C9.65686 7 11 5.65685 11 4C11 2.34315 9.65686 1 8 1C6.34314 1 5 2.34315 5 4C5 5.65685 6.34314 7 8 7Z" fill="#1E1D85"/>
<path fill-rule="evenodd" clip-rule="evenodd" d="M8 16C10.6274 16 13.0854 15.2216 15.1848 13.8679C15.6586 13.5623 16 13.2999 16 13.2999L15.6586 12.3329C14.3508 9.19016 11.4137 7 8 7C4.58631 7 1.64919 9.19016 0.34137 12.3329L0 13.2999C0 13.2999 0.34137 13.5623 0.815213 13.8679C2.9146 15.2216 5.37264 16 8 16ZM8 15C10.3354 15 12.4092 14.4902 14.2754 13.4373C14.6966 13.1996 15 12.9955 15 12.9955L14.6966 12.2434C13.5341 9.79907 11.0344 8 8 8C4.96561 8 2.46595 9.79907 1.30344 12.2434L1 12.9955C1 12.9955 1.30344 13.1996 1.72464 13.4373C3.59076 14.4902 5.66457 15 8 15Z" fill="#1E1D85"/>
</svg>
